<?xml version="1.0" encoding="utf-8"?>
<!-- Generator: Adobe Illustrator 16.0.0, SVG Export Plug-In . SVG Version: 6.00 Build 0)  -->
<!DOCTYPE svg PUBLIC "-//W3C//DTD SVG 1.1//EN" "http://www.w3.org/Graphics/SVG/1.1/DTD/svg11.dtd">
<svg version="1.1" id="Layer_1" xmlns="http://www.w3.org/2000/svg" xmlns:xlink="http://www.w3.org/1999/xlink" x="0px" y="0px"
	 width="20px" height="20px" viewBox="0 0 20 20" enable-background="new 0 0 20 20" xml:space="preserve">
<g>
	<path fill="#919191" d="M18.374,19.896c-0.404,0-0.797-0.166-1.071-0.452l-4.08-4.068c-1.392,0.964-3.057,1.476-4.746,1.476
		c-4.627,0-8.374-3.747-8.374-8.374S3.85,0.104,8.478,0.104s8.374,3.747,8.374,8.374c0,1.689-0.512,3.354-1.475,4.746l4.08,4.08
		c0.274,0.272,0.44,0.666,0.44,1.07C19.896,19.206,19.207,19.896,18.374,19.896z M8.478,3.148c-2.938,0-5.329,2.392-5.329,5.329
		s2.391,5.329,5.329,5.329s5.329-2.392,5.329-5.329S11.416,3.148,8.478,3.148z"/>
</g>
</svg>
